<svg width="30" height="30" viewBox="0 0 30 30" fill="none" xmlns="http://www.w3.org/2000/svg">
<path d="M15 0C6.71484 0 0 5.87695 0 13.125C0 17.2324 2.16211 20.8945 5.53711 23.3027C6.09961 23.707 6.42773 24.3633 6.32812 25.0547L5.77734 28.9336C5.69531 29.4961 6.12891 30 6.69727 30H11.25V26.7188C11.25 26.4609 11.4609 26.25 11.7188 26.25H12.6562C12.9141 26.25 13.125 26.4609 13.125 26.7188V30H16.875V26.7188C16.875 26.4609 17.0859 26.25 17.3438 26.25H18.2812C18.5391 26.25 18.75 26.4609 18.75 26.7188V30H23.3027C23.8711 30 24.3047 29.4961 24.2227 28.9336L23.6719 25.0547C23.5723 24.3691 23.8945 23.707 24.4629 23.3027C27.8379 20.8945 30 17.2324 30 13.125C30 5.87695 23.2852 0 15 0ZM9.375 18.75C7.30664 18.75 5.625 17.0684 5.625 15C5.625 12.9316 7.30664 11.25 9.375 11.25C11.4434 11.25 13.125 12.9316 13.125 15C13.125 17.0684 11.4434 18.75 9.375 18.75ZM20.625 18.75C18.5566 18.75 16.875 17.0684 16.875 15C16.875 12.9316 18.5566 11.25 20.625 11.25C22.6934 11.25 24.375 12.9316 24.375 15C24.375 17.0684 22.6934 18.75 20.625 18.75Z" fill="#666666"/>
</svg>
